<svg xmlns="http://www.w3.org/2000/svg" width="250" height="250" fill="none" viewBox="0 0 250 250">
<!-- SVG created with Arrow, by QuiverAI (https://quiver.ai) -->
  <path d="m12.94 79.99 2.46 0.01 0.58-0.66h-3.04v0.65z" fill="#D74125"/>
  <path d="m249 93.09 0.98-0.36v-1.36l-1.26 0.71 0.28 1.01z" fill="#D74125"/>
  <path d="m206.9 89.12c0.83-2.04 1.44-3.47 3.65-3.17s2.48 1.27 3.1 3.08c0.63 1.81-0.75 1.95-2.72 2.79-1.98 0.85-3.84 0.96-4.48-0.75-0.37-0.98 0.09-1.08 0.45-1.95z" fill="#E1461C" stroke="#D74125" stroke-miterlimit="10" stroke-width=".75"/>
  <path d="m53.58 157.9 159.3 0.36" stroke="#D74125" stroke-miterlimit="10" stroke-width=".5"/>
  <path d="m44.27 117.6h21.67v5.91h-7.14v19.17h-7.09v-19.17h-7.44v-5.91z" fill="#E85421" stroke="#D74125" stroke-miterlimit="10" stroke-width=".5"/>
  <path d="m69.49 117.6h20.77v5.7h-13.84v4.44h12.62v4.98h-12.62v4.45h13.84v5.51h-20.77v-25.08z" fill="#E85421" stroke="#D74125" stroke-miterlimit="10" stroke-width=".5"/>
  <path d="m94.58 117.6h10.66c6.93 0 10.78 3.76 10.78 8.98v0.08c0 5.94-4.45 9.11-11.11 9.11h-3.29v6.66h-7.04v-24.83zm10.13 12.27c2.96 0 4.53-1.52 4.53-3.51v-0.08c0-2.4-1.75-3.53-4.63-3.53h-2.99v7.12h3.09z" fill="#E85421" stroke="#D74125" stroke-miterlimit="10" stroke-width=".5"/>
  <path d="m119.3 117.6h6.62v9.19h9.83v-9.19h6.75v24.83h-6.75v-9.27h-9.83v9.27h-6.62v-24.83z" fill="#E85421" stroke="#D74125" stroke-miterlimit="10" stroke-width=".5"/>
  <path d="m147 117.6h20.77v5.7h-13.84v3.42h12.13v5.5h-12.13v4.66h13.84v5.55h-20.77v-24.83z" fill="#E85421" stroke="#D74125" stroke-miterlimit="10" stroke-width=".5"/>
  <path d="m171.5 117.6h7.1l10.37 13.55v-13.55h6.54v24.83h-6.1l-11.36-14.69v14.69h-6.55v-24.83z" fill="#E85421" stroke="#D74125" stroke-miterlimit="10" stroke-width=".5"/>
  <path d="m209.7 139 3.64-4.39c2.7 2.2 5.33 3.06 8.43 3.06 2.13 0 3.02-0.86 3.02-1.97v-0.09c0-1.29-1.1-1.79-4.59-2.66-5.1-1.29-9.03-2.8-9.03-7.78v-0.09c0-4.62 3.63-7.77 9.42-7.77 4.2 0 7.38 1.17 10.2 3.41l-3.23 4.9c-2.32-1.72-4.87-2.67-7.18-2.67-1.79 0-2.68 0.83-2.68 1.8v0.08c0 1.33 1 2.02 5.04 2.99 5.43 1.33 8.92 3.14 8.92 7.67v0.08c0 4.98-3.8 7.61-9.59 7.61-4.27 0-8.56-1.21-12.37-4.18z" fill="#E85421" stroke="#D74125" stroke-miterlimit="10" stroke-width=".5"/>
  <path d="m195.5 107.1 0.49 0.44c0.32 0.31 0.79 0.41 1.1 0.56 1.64 0.8 4.57 0.85 6.48 1.39 4.33 1.28 4.54 6.47 4.54 7.36-0.96-2.78-1.92-5.61-5.32-6.32-1.28-0.3-2.53-0.18-3.82-0.44l7.42 10.85c1.08 1.61-0.25 5.28-2.83 5.46-1.39 0.1-3.56-1.13-2.87-3.17 0.68-2.03 2.25-2.58 4.05-1.69l-9.65-13.83c-0.28-0.42-0.12-0.91 0.41-0.61z" fill="#E85421" stroke="#D74125" stroke-miterlimit="10" stroke-width=".25"/>
  <path d="m53.41 153.6 0.87-1.02c1.01 0.85 2.02 1.31 3.43 1.31 1.17 0 1.91-0.55 1.91-1.35v-0.04c0-0.74-0.41-1.16-2.37-1.57-2.15-0.49-3.24-1.16-3.24-2.74v-0.04c0-1.49 1.34-2.55 3.2-2.55 1.4 0 2.45 0.42 3.46 1.22l-0.78 1.07c-0.92-0.74-1.85-1.02-2.76-1.02-1.09 0-1.75 0.58-1.75 1.28v0.04c0 0.8 0.45 1.22 2.49 1.67 2.08 0.5 3.09 1.24 3.09 2.64v0.04c0 1.61-1.34 2.66-3.29 2.66-1.51-0.08-2.81-0.58-4.26-1.6z" fill="#D74125"/>
  <path d="m64.47 150.4c0-2.72 2.16-4.88 5.06-4.88 1.85 0 2.98 0.7 4.04 1.71l-0.85 0.96c-0.91-0.91-1.93-1.45-3.23-1.45-2.21 0-3.74 1.74-3.74 3.87v0.04c0 2.22 1.62 3.88 3.74 3.88 1.38 0 2.28-0.59 3.23-1.55l0.85 0.79c-1.1 1.16-2.32 1.82-4.2 1.82-2.74-0.35-4.9-2.53-4.9-5.19z" fill="#D74125"/>
  <path d="m76.88 145.8h1.34v4.1h5.56v-4.1h1.34v9.41h-1.34v-4.14h-5.56v4.14h-1.34v-9.41z" fill="#D74125"/>
  <path d="m88.72 150.4c0-2.72 2.16-4.88 5.13-4.88s5.13 2.21 5.13 4.79v0.04c0 2.58-2.12 4.86-5.13 4.86s-5.13-2.15-5.13-4.81zm8.98 0c0-2.17-1.67-3.87-3.85-3.87-2.24 0-3.77 1.74-3.77 3.82v0.05c0 2.16 1.61 3.83 3.85 3.83 2.19 0 3.77-1.7 3.77-3.83z" fill="#D74125"/>
  <path d="m102.4 150.4c0-2.72 2.16-4.88 5.13-4.88s5.13 2.21 5.13 4.79v0.04c0 2.58-2.12 4.86-5.13 4.86s-5.13-2.15-5.13-4.81zm8.98 0c0-2.17-1.67-3.87-3.85-3.87-2.24 0-3.77 1.74-3.77 3.82v0.05c0 2.16 1.61 3.83 3.85 3.83 2.18 0 3.77-1.7 3.77-3.83z" fill="#D74125"/>
  <path d="m116.4 145.8h1.34v8.27h5.56v1.18h-6.9v-9.45z" fill="#D74125"/>
  <path d="m130.8 150.4c0-2.72 2.16-4.88 5.13-4.88s5.13 2.21 5.13 4.79v0.04c0 2.58-2.12 4.86-5.13 4.86s-5.13-2.15-5.13-4.81zm8.88 0c0-2.17-1.67-3.87-3.85-3.87-2.24 0-3.77 1.74-3.77 3.82v0.05c0 2.16 1.61 3.83 3.85 3.83 2.23 0 3.77-1.7 3.77-3.83z" fill="#D74125"/>
  <path d="m144.9 145.8h7.45v1.11h-6.19v3.08h5.53v1.12h-5.53v4.06h-1.34v-9.37h0.08z" fill="#D74125"/>
  <path d="m162 145.8h1.38l3.49 5.1 3.49-5.1h1.38v9.41h-1.34v-7.27l-3.49 5.03h-0.08l-3.49-5.03v7.23h-1.34v-9.37z" fill="#D74125"/>
  <path d="m175.8 151.2v-5.35h1.34v5.22c0 1.99 1.1 3.1 2.9 3.1 1.71 0 2.81-1.02 2.81-3.05v-5.31h1.34v5.18c0 2.77-1.63 4.15-4.19 4.15-2.51 0.03-4.2-1.38-4.2-3.94z" fill="#D74125"/>
  <path d="m187.7 153.8 0.87-1.02c1.01 0.85 2.03 1.31 3.43 1.31 1.18 0 1.92-0.55 1.92-1.35v-0.04c0-0.74-0.41-1.16-2.37-1.57-2.15-0.49-3.24-1.16-3.24-2.74v-0.04c0-1.49 1.34-2.55 3.2-2.55 1.4 0 2.45 0.42 3.46 1.22l-0.78 1.07c-0.92-0.74-1.85-1.02-2.76-1.02-1.09 0-1.75 0.58-1.75 1.28v0.04c0 0.8 0.45 1.22 2.49 1.67 2.08 0.5 3.09 1.24 3.09 2.64v0.04c0 1.61-1.34 2.66-3.29 2.66-1.51-0.08-2.86-0.58-4.27-1.6z" fill="#D74125"/>
  <path d="m199.4 145.8h1.18v9.11h-1.18v-9.11z" fill="#D74125"/>
  <path d="m204.8 150.4c0-2.72 2.16-4.88 5.06-4.88 1.85 0 2.98 0.7 4.04 1.71l-0.85 0.96c-0.91-0.91-1.93-1.45-3.23-1.45-2.21 0-3.74 1.74-3.74 3.87v0.04c0 2.22 1.62 3.88 3.74 3.88 1.38 0 2.28-0.59 3.23-1.55l0.85 0.79c-1.1 1.16-2.32 1.82-4.2 1.82-2.78-0.35-4.9-2.53-4.9-5.19z" fill="#D74125"/>
  <path d="m15.4 11.07 0.36-0.45" stroke="#FEFFFE" stroke-miterlimit="10" stroke-width=".25"/>
  <path d="m14.06 79.62h1.34" stroke="#FEFFFE" stroke-miterlimit="10" stroke-width=".25"/>
  <path d="m28.28 86.31 1.41-0.3 1.06 1.71-1.34 0.57-1.13-1.98z" fill="#E85421"/>
  <path d="m29.41 89.67 1.34-0.54 1.36 2.54-1.36 0.66-1.34-2.66z" fill="#E85421"/>
  <path d="m38.93 84.69 0.16 35.32c-2.97-1.99-10.25-3.79-14.37-1.18-3.64 2.28-6.65 8.64 0 11.61 5.02 2.32 8.7 1.71 14.72 3.51 7.53 2.4 10.87 6.81 10.29 13.97-0.81 7.35-8.62 18.39-23.95 18.39-12.74 0-19.4-8.52-19.28-17.35 0.32-5.94 5.52-12.05 11.12-12.14 6.14-0.08 6.1 5.1 6.27 7.6-1.96-3.41-6.53-4.21-8.84-2.49-4.03 2.93-3.91 11.49 2.78 15.45 3.49 2.15 13.78 1.53 18.09-1.7 4.29-3.19 7.26-9 4.05-13-3.85-4.75-11.74-5.2-15.95-7.05-7.05-3.01-9.84-6.92-8.21-14 1.2-4.52 6.12-8.42 11.12-7.68 1.62 0.26 4.18 0.46 5.09 0.46l1.4-21.49-2.7-8.18 8.21-0.05z" fill="#E85421" stroke="#D74125" stroke-miterlimit="10" stroke-width=".25"/>
  <path d="m39.51 85.8 1.1-0.69 0.5 0.5-0.9 1.2-0.7-0.5v-0.51z" fill="#E85421" stroke="#D74125" stroke-miterlimit="10" stroke-width=".25"/>
  <path d="m39.41 88.56 0.92-0.8 0.95 0.66-0.82 1.21-1.05-0.71v-0.36z" fill="#E85421" stroke="#D74125" stroke-miterlimit="10" stroke-width=".25"/>
  <path d="m39.28 91.47 0.83-0.78 0.96 0.66-0.82 1.06-0.97-0.58v-0.36z" fill="#E85421" stroke="#D74125" stroke-miterlimit="10" stroke-width=".25"/>
</svg>